<?xml version="1.0" encoding="UTF-8" standalone="no"?>
<svg
   id="emoji"
   viewBox="0 0 51.000002 51"
   version="1.1"
   sodipodi:docname="beer.svg"
   width="51"
   height="51"
   inkscape:version="1.3.2 (091e20e, 2023-11-25, custom)"
   xmlns:inkscape="http://www.inkscape.org/namespaces/inkscape"
   xmlns:sodipodi="http://sodipodi.sourceforge.net/DTD/sodipodi-0.dtd"
   xmlns="http://www.w3.org/2000/svg"
   xmlns:svg="http://www.w3.org/2000/svg">
  <defs
     id="defs4" />
  <sodipodi:namedview
     id="namedview4"
     pagecolor="#ffffff"
     bordercolor="#000000"
     borderopacity="0.25"
     inkscape:showpageshadow="2"
     inkscape:pageopacity="0.0"
     inkscape:pagecheckerboard="0"
     inkscape:deskcolor="#d1d1d1"
     inkscape:zoom="16.291667"
     inkscape:cx="20.132992"
     inkscape:cy="25.626598"
     inkscape:window-width="2560"
     inkscape:window-height="1369"
     inkscape:window-x="-8"
     inkscape:window-y="79"
     inkscape:window-maximized="1"
     inkscape:current-layer="emoji" />
  <g
     id="hair"
     transform="translate(-15.838699,-10.380098)" />
  <g
     id="skin"
     transform="translate(-15.838699,-10.380098)" />
  <g
     id="skin-shadow"
     transform="translate(-15.838699,-10.380098)" />
  <g
     id="g4"
     transform="translate(3.1693493,0.18542388)">
    <g
       id="color"
       transform="translate(-15.838699,-10.380098)">
      <rect
         x="19"
         y="23.230101"
         width="29.999701"
         height="36.385601"
         fill="#fcea2b"
         id="rect1" />
      <polygon
         fill="#f1b31c"
         points="33,59.6157 48.9998,59.6157 48.9998,23.2301 40.5264,23.2301 "
         id="polygon1" />
      <path
         fill="#ffffff"
         d="m 44.1933,15.3999 c -1.304,-0.001 -2.5018,0.4709 -3.4585,1.2577 -0.9376,-1.9375 -2.8336,-3.2665 -5.0258,-3.2682 -0.8005,-6e-4 -1.5606,0.1771 -2.2511,0.4952 -1.1199,-1.5208 -2.8597,-2.5031 -4.819,-2.5046 -2.9465,-0.0023 -5.4063,2.205 -5.997,5.1492 C 22.294,16.4418 21.9358,16.3844 21.5634,16.3841 18.9601,16.382 16.8472,18.6237 16.845,21.39 l -0.0063,8.0154 c -9e-4,1.1021 0.847,2.0045 1.8842,2.0053 l 0.9429,7e-4 c 1.0372,8e-4 1.8865,-0.9002 1.8873,-2.0024 l 0.0013,-1.5991 c 0.5711,0.3722 1.2338,0.5981 1.9494,0.5987 l 1.8546,0.0015 c 1.2022,9e-4 2.2653,-0.6144 2.9581,-1.5517 1.0256,1.5428 2.7125,2.5581 4.6153,2.5596 3.1115,0.0025 5.6594,-2.7007 5.662,-6.0071 l 10.9214,0.0086 c 0.2098,-0.627 0.3301,-1.3002 0.3306,-2.0036 0.0027,-3.3203 -2.5278,-6.0135 -5.6525,-6.016 z"
         id="path1" />
      <path
         fill="#ffffff"
         d="m 19.8066,24.8075 c 0.0022,-2.6882 2.115,-4.8665 4.7184,-4.8646 0.3724,3e-4 0.7307,0.0561 1.0785,0.141 0.5907,-2.861 3.0506,-5.006 5.9971,-5.0037 1.9593,0.0015 3.699,0.956 4.8189,2.4339 0.6904,-0.3091 1.4505,-0.4818 2.2511,-0.4812 2.1922,0.0017 4.0882,1.2932 5.0258,3.1759 0.9567,-0.7645 2.1545,-1.2232 3.4585,-1.2222 0.5297,4e-4 1.0401,0.0815 1.5261,0.2223 -0.7688,-2.2807 -2.8627,-3.9207 -5.3338,-3.9226 -1.304,-0.001 -2.5018,0.4577 -3.4585,1.2222 -0.9376,-1.8828 -2.8336,-3.1742 -5.0258,-3.1759 -0.8005,-6e-4 -1.5607,0.1721 -2.2511,0.4812 -1.1199,-1.4778 -2.8597,-2.4324 -4.8189,-2.4339 -2.9465,-0.0023 -5.4064,2.1427 -5.9971,5.0037 -0.3478,-0.085 -0.7061,-0.1407 -1.0785,-0.141 -2.6034,-0.002 -4.7163,2.1764 -4.7184,4.8646 l -0.0063,7.7891 c -9e-4,1.071 0.847,1.9479 1.8842,1.9487 l 0.9429,7e-4 c 0.3605,3e-4 0.6951,-0.1105 0.9824,-0.2934 z"
         id="path2" />
    </g>
    <g
       id="line"
       transform="translate(-15.838699,-10.380098)">
      <path
         fill="none"
         stroke="#000000"
         stroke-linecap="round"
         stroke-linejoin="round"
         stroke-miterlimit="10"
         stroke-width="2"
         d="m 49.5,50.5 h 6 c 2.2,0 4,-1.8 4,-4 v -14 c 0,-2.2 -1.8,-4 -4,-4 h -6"
         id="path3" />
      <polyline
         fill="none"
         stroke="#000000"
         stroke-linecap="round"
         stroke-linejoin="round"
         stroke-miterlimit="10"
         stroke-width="2.0185"
         points="38.5938,23.2301 48.9997,23.2301 48.9997,60 20,60 20,39.6348"
         id="polyline3" />
      <path
         fill="none"
         stroke="#000000"
         stroke-linecap="round"
         stroke-linejoin="round"
         stroke-miterlimit="10"
         stroke-width="2"
         d="m 20.2515,31.3124 c 0.753,-0.2628 1.3009,-1.0182 1.3016,-1.9033 L 21.5544,27.81 c 0.5711,0.3722 1.2338,0.5981 1.9494,0.5987 l 1.8546,0.0015 c 1.2022,9e-4 2.2653,-0.6144 2.9581,-1.5517 1.0256,1.5428 2.7125,2.5581 4.6153,2.5596 3.1115,0.0025 5.6594,-2.7007 5.662,-6.0071 l 10.9214,0.0086 c 0.2098,-0.627 0.3301,-1.3002 0.3306,-2.0036 0.0026,-3.3204 -2.5278,-6.0136 -5.6525,-6.016 -1.304,-0.001 -2.5018,0.4709 -3.4585,1.2577 -0.9376,-1.9375 -2.8336,-3.2665 -5.0258,-3.2682 -0.8005,-6e-4 -1.5606,0.1771 -2.2511,0.4952 -1.1199,-1.5208 -2.8597,-2.5031 -4.819,-2.5046 -2.9465,-0.0023 -5.4063,2.205 -5.997,5.1492 -0.3479,-0.0874 -0.7061,-0.1448 -1.0785,-0.1451 -2.6033,-0.0021 -4.7162,2.2396 -4.7184,5.0059 l -0.0063,8.0154 c -9e-4,1.1021 0.847,2.0045 1.8842,2.0053 l 0.9429,7e-4 c 0.2042,10e-5 0.4011,-0.0347 0.5857,-0.0991"
         id="path4" />
    </g>
  </g>
</svg>
