<?xml version="1.0" encoding="UTF-8" standalone="no"?>
<!-- Created with Inkscape (http://www.inkscape.org/) -->

<svg
   width="50mm"
   height="50mm"
   viewBox="0 0 50 50"
   version="1.1"
   id="svg1"
   xml:space="preserve"
   xmlns:xlink="http://www.w3.org/1999/xlink"
   xmlns="http://www.w3.org/2000/svg"
   xmlns:svg="http://www.w3.org/2000/svg"><defs
     id="defs1"><linearGradient
       id="linearGradient25"><stop
         style="stop-color:#027db2;stop-opacity:1;"
         offset="0"
         id="stop25" /><stop
         style="stop-color:#028fcd;stop-opacity:1;"
         offset="0.49352515"
         id="stop38" /><stop
         style="stop-color:#02a0e4;stop-opacity:1;"
         offset="1"
         id="stop28" /></linearGradient><linearGradient
       id="linearGradient15"><stop
         style="stop-color:#ffca36;stop-opacity:1;"
         offset="0.00143885"
         id="stop24" /><stop
         style="stop-color:#ffbc04;stop-opacity:1;"
         offset="0.48201439"
         id="stop19" /><stop
         style="stop-color:#e0a500;stop-opacity:1;"
         offset="1"
         id="stop20" /></linearGradient><linearGradient
       xlink:href="#linearGradient15"
       id="linearGradient20"
       x1="9.1148777"
       y1="22.961504"
       x2="36.593834"
       y2="22.961504"
       gradientUnits="userSpaceOnUse" /><linearGradient
       xlink:href="#linearGradient25"
       id="linearGradient30"
       x1="21.371021"
       y1="32.30764"
       x2="42.62516"
       y2="32.30764"
       gradientUnits="userSpaceOnUse" /></defs><g
     id="layer1"><g
       id="g14"
       transform="matrix(1.4667477,0,0,1.4667477,-12.919955,-12.935437)"
       style="stroke:#000000;stroke-width:0.340895;stroke-dasharray:none;stroke-opacity:1"><g
         id="g15"
         transform="matrix(0.86,0,0,0.86,3.6218055,3.6290391)"
         style="stroke:#000000;stroke-width:0.39639;stroke-dasharray:none;stroke-opacity:1"><g
           id="g38"
           transform="matrix(0.94598136,0,0,1.0003318,1.3777712,-0.03581036)"><path
             id="path6-0-0-8"
             style="fill:url(#linearGradient20);fill-opacity:1;stroke:#000000;stroke-width:0.39639;stroke-linecap:round;stroke-linejoin:miter;stroke-dasharray:none;stroke-opacity:1"
             d="M 26.11324,6.3411298 C 21.42899,10.934147 15.14286,16.2872 11.74088,22.204976 8.6447004,27.590799 7.9374704,33.44438 13.05052,39.634633 21.96093,37.091338 25.01114,36.130157 25.16615,34.09326 25.33701,31.848077 22.03739,30.788045 21.29652,28.505027 20.5449,26.188867 22.03803,20.837914 36.252644,16.383354 33.101514,12.586345 29.34778,9.5756638 26.11324,6.3411298 Z" /><path
             id="path6-7-6-2-3"
             style="fill:url(#linearGradient30);fill-opacity:1;stroke:#000000;stroke-width:0.39639;stroke-linecap:round;stroke-linejoin:miter;stroke-dasharray:none;stroke-opacity:1"
             d="m 27.46706,26.653185 c 0.45532,2.191007 3.24518,2.715312 5.275794,4.036145 7.46355,4.85476 -5.987964,11.348456 -10.861094,14.311459 8.13036,1.997852 14.006967,-2.403672 15.814484,-4.401124 6.146966,-6.792892 5.67399,-12.760304 2.37258,-18.55201 -0.66301,-1.163122 -1.03902,-1.752618 -1.89693,-2.896531 -2.1146,0.768352 -11.493884,3.705091 -10.704834,7.502061 z" /></g></g></g></g></svg>
