<?xml version="1.0" encoding="UTF-8" standalone="no"?>
<!-- Created with Inkscape (http://www.inkscape.org/) -->

<svg
   width="50mm"
   height="50mm"
   viewBox="0 0 50 50"
   version="1.1"
   id="svg1"
   inkscape:version="1.3.2 (091e20e, 2023-11-25, custom)"
   sodipodi:docname="favicon.svg"
   xmlns:inkscape="http://www.inkscape.org/namespaces/inkscape"
   xmlns:sodipodi="http://sodipodi.sourceforge.net/DTD/sodipodi-0.dtd"
   xmlns="http://www.w3.org/2000/svg"
   xmlns:svg="http://www.w3.org/2000/svg">
  <sodipodi:namedview
     id="namedview1"
     pagecolor="#ffffff"
     bordercolor="#000000"
     borderopacity="0.25"
     inkscape:showpageshadow="2"
     inkscape:pageopacity="0.0"
     inkscape:pagecheckerboard="true"
     inkscape:deskcolor="#d1d1d1"
     inkscape:document-units="mm"
     showguides="true"
     inkscape:zoom="1.4778115"
     inkscape:cx="-0.67667629"
     inkscape:cy="73.419377"
     inkscape:window-width="2560"
     inkscape:window-height="1369"
     inkscape:window-x="-8"
     inkscape:window-y="79"
     inkscape:window-maximized="1"
     inkscape:current-layer="layer1" />
  <defs
     id="defs1" />
  <g
     inkscape:label="Layer 1"
     inkscape:groupmode="layer"
     id="layer1">
    <path
       id="path6-06-8-2-1-3-8"
       style="fill:#ffbc00;fill-opacity:1;fill-rule:nonzero;stroke:#000000;stroke-width:2.00861;stroke-linecap:round;stroke-linejoin:miter;stroke-dasharray:none;stroke-opacity:1"
       d="M 25.292051,1.6994186 C 19.669021,7.2129368 12.123072,13.638805 8.0392938,20.74258 4.3226008,27.207785 3.4736331,34.234494 9.6114014,41.665358 20.307569,38.61235 23.969077,37.458537 24.155154,35.013417 24.360244,32.318276 20.399351,31.045804 19.510002,28.305237 18.607748,25.52489 20.40012,19.101544 37.463513,13.754237 33.680858,9.1962582 29.174821,5.5822003 25.292051,1.6994186 Z"
       sodipodi:nodetypes="cscsscc" />
    <path
       id="path6-7-07-9-9-2-7-1"
       style="fill:#008fcd;fill-opacity:1;stroke:#000000;stroke-width:2.00861;stroke-linecap:round;stroke-linejoin:miter;stroke-dasharray:none;stroke-opacity:1"
       d="m 26.917194,26.082267 c 0.546572,2.630103 3.895554,3.259491 6.333112,4.845032 8.959349,5.827712 -7.188008,13.62282 -13.037775,17.179652 9.759785,2.398245 16.690942,-2.990215 18.983896,-5.283157 7.252244,-8.25526 6.811129,-15.317635 2.848063,-22.270062 C 41.248605,19.157509 40.79725,18.449865 39.767392,17.0767 37.229,17.999039 25.970009,21.524337 26.917194,26.082267 Z"
       sodipodi:nodetypes="ssccscs" />
  </g>
</svg>
