<?xml version="1.0" encoding="UTF-8" standalone="no"?>
<!-- Created with Inkscape (http://www.inkscape.org/) -->

<svg
   width="50mm"
   height="50mm"
   viewBox="0 0 50 50"
   version="1.1"
   id="svg1"
   sodipodi:docname="bier_barrel4.svg"
   inkscape:version="1.3.2 (091e20e, 2023-11-25)"
   xml:space="preserve"
   xmlns:inkscape="http://www.inkscape.org/namespaces/inkscape"
   xmlns:sodipodi="http://sodipodi.sourceforge.net/DTD/sodipodi-0.dtd"
   xmlns="http://www.w3.org/2000/svg"
   xmlns:svg="http://www.w3.org/2000/svg"><sodipodi:namedview
     id="namedview1"
     pagecolor="#ffffff"
     bordercolor="#000000"
     borderopacity="0.25"
     inkscape:showpageshadow="2"
     inkscape:pageopacity="0.0"
     inkscape:pagecheckerboard="0"
     inkscape:deskcolor="#d1d1d1"
     inkscape:document-units="mm"
     inkscape:zoom="0.97313807"
     inkscape:cx="192.16184"
     inkscape:cy="171.60977"
     inkscape:window-width="1440"
     inkscape:window-height="761"
     inkscape:window-x="0"
     inkscape:window-y="25"
     inkscape:window-maximized="0"
     inkscape:current-layer="svg1" /><defs
     id="defs1" /><path
     style="fill:#555555;fill-opacity:1;stroke:#555555;stroke-width:2.453;stroke-dasharray:none;stroke-opacity:1"
     d="M 10.700995,48.776013 C 8.9718838,45.720919 7.7808384,42.289457 6.7092221,38.961479 6.5232227,38.37425 4.824762,32.806288 4.8304335,24.939707 4.834084,19.871812 5.1177041,17.653185 6.5245224,11.687425 7.120718,9.1591952 8.8856012,4.457886 10.023032,2.3680777 l 0.558415,-1.0259832 13.94482,-0.0855 c 7.669653,-0.047025 14.337302,-0.02509 14.337302,-0.02509 0,0 3.641791,7.0066266 4.615517,10.7979126 1.333082,5.19047 1.950516,11.003211 1.586729,15.998281 -0.316806,4.350036 -0.82499,7.319729 -1.939638,11.334714 -0.65842,2.371645 -2.06033,6.060379 -2.967038,7.806932 l -0.798947,1.538971 -14.236904,0.04378 c -11.252317,0.0346 -14.422293,0.02392 -14.422293,0.02392 z m 5.891298,-1.649419 c 0.04194,-0.07054 -0.156192,-1.20553 -0.440307,-2.522209 -0.284115,-1.316679 -0.658809,-3.317345 -0.832654,-4.445926 l -0.316081,-2.051965 -3.790869,-0.04737 c -1.525918,-0.01907 -2.8375382,0.01279 -2.9149407,0.08632 -0.3474451,0.330062 1.9157897,8.871606 3.3153297,8.895638 z m 7.478494,-4.488676 v -4.531424 l -4.185085,-0.0459 -3.168425,-0.04591 v 0.678721 c 0,0.373301 0.0745,1.04802 0.165554,1.499379 0.09107,0.45136 0.260735,1.320819 0.377068,1.932135 0.391229,2.055856 0.887391,4.227637 1.070183,4.684365 l 0.181416,0.453286 2.271315,-0.04662 3.287974,-0.04661 z m 7.462753,4.416355 c 0.07177,-0.110312 0.189588,-0.475817 0.261825,-0.812237 1.046545,-4.874027 1.252736,-6.014521 1.300729,-7.195059 l 0.03823,-0.940483 -3.168425,-0.0459 -4.185087,-0.04591 v 4.620075 4.620075 h 3.319445 c 2.345075,0 2.341087,-0.05888 2.433271,-0.200569 z m 7.28169,-0.697166 c 1.312477,-2.744833 2.718279,-6.543628 2.834366,-7.659099 l 0.06157,-0.591514 h -2.873313 -3.88997 l -0.12517,0.598487 c -0.06885,0.329172 -0.223227,1.252555 -0.343069,2.051968 -0.119844,0.799413 -0.446796,2.525811 -0.726563,3.836444 -0.279766,1.31063 -0.467901,2.445625 -0.418078,2.522207 0.04982,0.0766 0.977924,0.139242 2.062449,0.139242 h 2.988521 z m -24.582531,-21.331902 -0.0048,-7.096384 -4.166933,-0.04663 -3.1502713,-0.04663 -0.097649,0.474129 c -0.6326437,3.071936 -0.5117603,12.698038 0.1727091,13.750119 0.056082,0.08621 1.4649689,0.134474 3.1679292,0.108524 l 4.083583,-0.04672 z m 9.838088,0 v -7.096384 l -4.531991,-0.04564 c -4.495324,-0.04529 -3.516321,-0.0427 -3.637801,0.320906 -0.222132,0.664851 -0.143893,13.234738 0.08491,13.640858 0.2048,0.363526 -0.754001,0.367533 3.637804,0.322382 l 4.447085,-0.04571 z m 9.911314,5.984904 c 0.164738,-1.433302 0.188063,-9.918494 0.03232,-11.756058 l -0.119573,-1.410725 h -4.565342 -3.548678 v 7.067883 c 0,3.887336 0.05537,7.120495 0.123074,7.1848 0.06769,0.06429 1.09632,0.09636 3.528431,0.07125 l 4.422021,-0.04566 z m 9.033557,0.983234 c 0,-0.40525 0.588595,-4.449068 0.574026,-7.224634 -0.01521,-2.895684 -0.378623,-6.731525 -0.65311,-6.893351 -0.109648,-0.06466 -1.564243,-0.09495 -3.232441,-0.06735 l -4.049746,0.05017 0.03088,7.131705 c 0.01697,3.922439 0.03721,7.150943 0.045,7.174455 0.0018,0.0054 -0.560308,0.01065 -0.342118,0.01543 0.725449,0.01594 3.126376,0.02732 4.410937,0.02732 2.215186,0 3.216582,-0.01066 3.216582,-0.213746 z M 14.930121,11.687425 c 0.07788,-0.141073 0.319203,-1.372252 0.536282,-2.735955 0.217077,-1.3637025 0.574513,-3.2649668 0.794308,-4.2250315 0.277102,-1.2104163 0.342124,-1.8001878 0.212085,-1.9237184 -0.200212,-0.1901959 -4.147867,-0.249211 -4.631825,-0.072792 -0.29879,0.1089188 -0.824457,1.0990178 -1.7598,3.3145885 -0.9943914,2.3554418 -2.0122589,5.5655984 -1.8458361,5.8214034 0.069511,0.106835 1.1422666,0.154367 2.8243031,0.125136 2.192222,-0.0381 3.756038,-0.09632 3.870483,-0.303631 z M 24.11884,7.4243791 C 24.15607,3.9226393 24.11564,2.8738687 23.938838,2.7673236 23.653373,2.5951942 18.857231,2.5843351 18.594185,2.7554406 c -0.317736,0.2066812 -0.68503,1.4933652 -1.158551,4.058565 -0.08682,0.4702427 -0.278248,1.5090498 -0.42543,2.3084619 -0.354099,1.9232495 -0.397627,2.4366835 -0.228602,2.6964865 0.108667,0.16703 0.06192,0.206276 3.206794,0.170894 l 4.082391,-0.04593 z m 8.969702,3.4173709 c -0.07942,-1.9115374 -1.222686,-7.4727698 -1.627751,-7.9179315 -0.238517,-0.2621252 0.381235,-0.299245 -2.183072,-0.299245 -1.610092,0 -3.055567,0.046708 -3.21217,0.1037934 -0.249616,0.090996 -0.284723,0.6567709 -0.284723,4.5884247 0,2.4665484 0.05548,4.5373384 0.123293,4.6017584 0.0678,0.06442 1.951103,0.09647 4.185088,0.07125 l 3.045129,-0.04589 z m 8.477777,1.052483 C 41.810157,11.746975 41.730491,11.352384 41.023992,9.2079654 40.154334,6.5683223 38.802918,3.5079079 38.249047,2.9238185 38.017927,2.6800898 36.644896,2.6250592 35.311483,2.6271919 c -0.900425,0.00145 -1.731156,0.059447 -1.846074,0.1289063 -0.14292,0.086386 -0.163359,0.342193 -0.06467,0.8096183 1.178146,5.5809308 0.952838,5.8973526 1.683094,8.3852975 2.157145,0.12276 4.326322,0.210764 6.482502,-0.05679 z"
     id="path1"
     sodipodi:nodetypes="cscsscccassscscccsscscscccccscsscccccsscccccsccsscccssssscscccccsccccccsscccsscccssscssssccccsssssscssssssscscssscsssssssccscsscscccc" /><path
     style="fill:#555555;fill-opacity:1;stroke:#555555;stroke-width:0.499373;stroke-dasharray:none;stroke-opacity:1"
     d="m 74.705024,81.218648 c -0.348127,-0.4033 -1.640432,-3.037811 -2.336258,-4.762727 -0.588807,-1.459623 -0.932248,-2.451015 -1.819128,-5.251172 -0.09303,-0.29371 -0.379628,-1.49525 -0.636894,-2.670091 -1.071025,-4.890961 -1.322335,-7.163476 -1.3189,-11.926396 0.0038,-5.275614 0.299044,-7.585176 1.763525,-13.795457 0.620631,-2.631855 2.457853,-7.525858 3.641902,-9.701322 l 0.581304,-1.068036 14.516382,-0.089 c 7.984005,-0.04895 14.700233,-0.0607 14.924943,-0.02612 0.95474,0.146949 3.54987,6.218203 4.8047,11.240491 1.48318,5.936251 2.03046,11.454203 1.65176,16.654007 -0.32979,4.528332 -0.8588,7.619745 -2.01914,11.799293 -0.6854,2.468852 -2.14477,6.308777 -3.08865,8.126916 l -0.83169,1.60205 -14.820433,0.04558 c -11.713519,0.03602 -14.860895,-0.0013 -15.013423,-0.178006 z M 80.83779,79.70453 c 0.04367,-0.07343 -0.162593,-1.254942 -0.458354,-2.625588 -0.29576,-1.370645 -0.685812,-3.453314 -0.866782,-4.628152 l -0.329036,-2.136071 -3.946247,-0.04931 c -1.588462,-0.01985 -2.953841,0.01332 -3.034417,0.08986 -0.361685,0.34359 2.538239,8.124614 3.451218,9.260247 0.197469,0.245624 5.041901,0.327309 5.183618,0.089 z m 7.785017,-4.672655 v -4.717156 l -4.35662,-0.04778 -3.29829,-0.04779 v 0.70654 c 0,0.388601 0.07755,1.090975 0.172339,1.560834 0.0948,0.469859 0.271422,1.374957 0.392523,2.011328 0.407265,2.14012 0.923763,4.400917 1.114048,4.876364 l 0.188852,0.471866 2.364409,-0.04853 3.422739,-0.04852 z m 7.768631,4.597369 c 0.07471,-0.114833 0.197364,-0.49532 0.272554,-0.845528 1.08944,-5.073801 1.30409,-6.261041 1.35404,-7.489965 l 0.0398,-0.979032 -3.298285,-0.04778 -4.356622,-0.04779 v 4.809439 4.80944 h 3.455501 c 2.441192,0 2.437041,-0.0613 2.533003,-0.20879 z m 7.580142,-0.72574 c 1.36628,-2.857337 2.8297,-6.811834 2.95054,-7.973025 l 0.0641,-0.61576 h -2.99108 -4.049408 l -0.1303,0.623019 c -0.0717,0.342664 -0.23237,1.303894 -0.35713,2.136072 -0.12475,0.832178 -0.46511,2.629337 -0.75634,3.993689 -0.29123,1.36435 -0.48708,2.545865 -0.43521,2.625586 0.0519,0.07973 1.018,0.144949 2.146978,0.144949 h 3.11101 z m 3.43983,-10.502349 c 0.25727,-0.301264 0.66005,-2.219563 0.51337,-2.445019 -0.1518,-0.233322 -36.56621,-0.251958 -36.717905,-0.01879 -0.09529,0.146474 0.381222,2.23185 0.583329,2.552815 0.04623,0.07342 8.037169,0.133504 17.757627,0.133504 13.912579,0 17.713999,-0.04734 17.863579,-0.222508 z m -29.029926,-11.70389 -0.005,-7.387245 -4.337726,-0.04854 -3.279391,-0.04854 -0.101653,0.493563 c -0.658574,3.197846 -0.532736,13.218496 0.179788,14.313699 0.05838,0.08974 1.525014,0.139986 3.297773,0.112972 l 4.250959,-0.04864 z m 10.241323,0 V 49.31002 L 83.905062,49.2625 c -4.679575,-0.04715 -3.660444,-0.04444 -3.786904,0.334059 -0.231236,0.692102 -0.14979,13.777194 0.08838,14.19996 0.213194,0.378425 -0.784905,0.382597 3.786907,0.335595 l 4.629359,-0.04758 z m 10.317555,6.230209 c 0.17149,-1.492049 0.19577,-10.325027 0.0336,-12.237908 l -0.12447,-1.468547 h -4.752467 -3.694129 v 7.357577 c 0,4.046667 0.05765,7.412345 0.128119,7.479286 0.07046,0.06693 1.141255,0.100317 3.673052,0.07417 l 4.603265,-0.04754 z m 9.403808,1.023534 c 0,-0.421861 0.61272,-4.631424 0.59756,-7.520752 -0.0158,-3.014371 -0.39414,-7.007433 -0.67988,-7.175891 -0.11414,-0.0673 -1.62836,-0.09885 -3.36493,-0.07011 l -4.21573,0.05223 0.0321,7.424015 c 0.0177,4.083208 0.0387,7.444039 0.0468,7.468516 0.002,0.0057 -0.58328,0.01108 -0.35615,0.01607 0.75519,0.0166 3.25452,0.02843 4.59173,0.02843 2.30598,0 3.34842,-0.01111 3.34842,-0.222506 z m -0.41006,-16.562099 c 0.0511,-0.126532 -0.0148,-0.747326 -0.14641,-1.379546 l -0.23935,-1.14949 H 89.65792 71.767486 l -0.131956,0.445014 c -0.07258,0.244758 -0.232699,0.776915 -0.355831,1.182568 -0.123132,0.405656 -0.166208,0.826194 -0.09573,0.934533 0.201657,0.309961 36.624811,0.277177 36.750141,-0.03308 z M 79.10749,42.812805 c 0.08107,-0.146855 0.332286,-1.428497 0.558263,-2.848094 0.225975,-1.419597 0.598062,-3.398789 0.826864,-4.398205 0.28846,-1.260028 0.356147,-1.873972 0.220779,-2.002566 -0.208419,-0.197992 -4.317878,-0.259426 -4.821672,-0.07578 -0.311036,0.113383 -0.858249,1.144063 -1.83193,3.450444 -1.035149,2.451985 -2.094736,5.793717 -1.921492,6.060007 0.07236,0.111215 1.189085,0.160694 2.940065,0.130265 2.282075,-0.03966 3.909987,-0.100262 4.029123,-0.316076 z m 9.56534,-4.437776 c 0.03876,-3.645268 -0.0034,-4.737024 -0.18738,-4.847936 -0.297166,-0.179185 -5.289889,-0.190489 -5.563715,-0.01237 -0.33076,0.215152 -0.713108,1.554574 -1.206037,4.224915 -0.09037,0.489516 -0.289653,1.570901 -0.442868,2.403079 -0.368612,2.002079 -0.413924,2.536557 -0.237972,2.807009 0.113121,0.173876 0.06445,0.21473 3.338231,0.177897 l 4.249718,-0.04781 z m 9.337342,3.557439 c -0.0827,-1.989886 -1.2728,-7.779059 -1.694464,-8.242466 -0.248293,-0.272869 0.396864,-0.31151 -2.27255,-0.31151 -1.676086,0 -3.180807,0.04862 -3.343828,0.108047 -0.259848,0.09472 -0.296395,0.68369 -0.296395,4.776492 0,2.567645 0.05776,4.723312 0.128348,4.790372 0.07059,0.06706 2.031074,0.100433 4.356624,0.07417 l 3.169935,-0.04777 z m 8.825258,1.095622 c 0.25383,-0.153295 0.1709,-0.564059 -0.56455,-2.796371 -0.90531,-2.747835 -2.31211,-5.933688 -2.88869,-6.541717 -0.24059,-0.253719 -1.6699,-0.311005 -3.05796,-0.308785 -0.937328,0.0015 -1.802118,0.06188 -1.921738,0.13419 -0.14878,0.08993 -0.17006,0.356219 -0.0673,0.842802 1.22643,5.809679 0.99189,6.13907 1.752078,8.728989 2.24556,0.127791 4.50364,0.219402 6.7482,-0.05911 z"
     id="path1-6"
     sodipodi:nodetypes="sssscsscsssssscssscsscscsccccccscsscccccsscccccsccsscccssssscsssssssscccccsccccccsscccsscccssscssssccccssssssccccscsssscssssssscscssscsssssssccscsscscccc" /></svg>
